<?xml version="1.0" encoding="utf-8"?>
<!-- Generator: Adobe Illustrator 15.1.0, SVG Export Plug-In . SVG Version: 6.00 Build 0)  -->
<!DOCTYPE svg PUBLIC "-//W3C//DTD SVG 1.1//EN" "http://www.w3.org/Graphics/SVG/1.1/DTD/svg11.dtd">
<svg version="1.1" id="Layer_1" xmlns="http://www.w3.org/2000/svg" xmlns:xlink="http://www.w3.org/1999/xlink" x="0px" y="0px"
	 width="36.591px" height="10.333px" viewBox="0 0 36.591 10.333" enable-background="new 0 0 36.591 10.333" xml:space="preserve">
<path fill="#3498DB" d="M0,0v10.333h10.333V0H0z M1.477,1.477h4.016L1.477,4.039V1.477z M8.856,8.857h-3.72l3.72-2.372V8.857z
	 M8.856,4.105l-7.38,4.708v-2.56l7.38-4.708V4.105z"/>
<g>
	<path fill="#3498DB" d="M12.869,6.885l2.237-3.28V3.586h-2.045V3.149h2.729v0.317l-2.23,3.269v0.018h2.261v0.438h-2.951V6.885z"/>
	<path fill="#3498DB" d="M16.985,3.149v2.398c0,0.899,0.402,1.283,0.941,1.283c0.594,0,0.983-0.396,0.983-1.283V3.149h0.528v2.362
		c0,1.241-0.654,1.745-1.529,1.745c-0.828,0-1.451-0.468-1.451-1.727V3.149H16.985z"/>
	<path fill="#3498DB" d="M20.345,3.149h0.521v1.949h0.018c0.108-0.156,0.217-0.3,0.318-0.432l1.235-1.518h0.647l-1.463,1.715
		l1.576,2.327h-0.617l-1.325-1.985l-0.39,0.444v1.541h-0.521V3.149z"/>
	<path fill="#3498DB" d="M25.683,5.295h-1.564v1.457h1.751v0.438h-2.278V3.149h2.188v0.438h-1.661v1.277h1.564V5.295z"/>
	<path fill="#3498DB" d="M26.548,3.208c0.229-0.054,0.594-0.09,0.954-0.09c0.522,0,0.857,0.09,1.104,0.294
		c0.21,0.156,0.342,0.396,0.342,0.714c0,0.396-0.265,0.737-0.684,0.888v0.018c0.384,0.09,0.833,0.408,0.833,1.008
		c0,0.348-0.138,0.617-0.348,0.81c-0.275,0.258-0.731,0.378-1.391,0.378c-0.36,0-0.636-0.024-0.811-0.049V3.208z M27.071,4.864
		h0.474c0.546,0,0.869-0.294,0.869-0.684c0-0.468-0.354-0.659-0.881-0.659c-0.24,0-0.378,0.018-0.462,0.036V4.864z M27.071,6.794
		c0.108,0.019,0.252,0.024,0.438,0.024c0.54,0,1.038-0.198,1.038-0.785c0-0.546-0.475-0.78-1.044-0.78h-0.432V6.794z"/>
	<path fill="#3498DB" d="M33.255,5.127c0,1.386-0.846,2.129-1.877,2.129c-1.074,0-1.817-0.833-1.817-2.057
		c0-1.283,0.792-2.123,1.871-2.123C32.542,3.077,33.255,3.922,33.255,5.127z M30.113,5.188c0,0.869,0.468,1.643,1.295,1.643
		c0.828,0,1.295-0.762,1.295-1.679c0-0.81-0.419-1.649-1.289-1.649C30.544,3.502,30.113,4.306,30.113,5.188z"/>
	<path fill="#3498DB" d="M35.986,7.191l-0.521-0.894c-0.21-0.342-0.336-0.563-0.462-0.798H34.99
		c-0.113,0.234-0.232,0.45-0.438,0.804l-0.485,0.888h-0.6l1.235-2.045l-1.188-1.997h0.605l0.534,0.947
		c0.149,0.264,0.264,0.468,0.372,0.684h0.018c0.113-0.239,0.216-0.426,0.365-0.684l0.547-0.947h0.605l-1.23,1.967l1.26,2.075H35.986
		z"/>
</g>
</svg>
